<svg width="40" height="40" viewBox="0 0 40 40" fill="none" xmlns="http://www.w3.org/2000/svg">
<g clip-path="url(#clip0_821_20)">
<path d="M32.3411 0H7.65894C3.42902 0 0 4.11798 0 9.19776V30.8022C0 35.882 3.42902 40 7.65894 40H32.3411C36.571 40 40 35.882 40 30.8022V9.19776C40 4.11798 36.571 0 32.3411 0Z" fill="black"/>
<path d="M18.4554 10.0428L16.0856 10L5 30H13.4303L18.4554 10.0428Z" fill="white"/>
<path d="M21.5415 10.0428L23.9146 10L35.0002 30H26.5698L21.5415 10.0428Z" fill="white"/>
<path d="M21.5124 17.8237H19.9989H18.4887L17.8647 21.1424L20.0155 21.1726H20.0453L22.133 21.1272L21.5124 17.8237Z" fill="white"/>
</g>
<defs>
<clipPath id="clip0_821_20">
<rect width="40" height="40" fill="white"/>
</clipPath>
</defs>
</svg>
