<svg width="32" height="32" viewBox="0 0 32 32" fill="none" xmlns="http://www.w3.org/2000/svg">
<path d="M30.9996 1L20.3561 30.4746C20.2843 30.6314 20.1689 30.7642 20.0238 30.8573C19.8787 30.9505 19.7099 31 19.5374 31C19.365 31 19.1961 30.9505 19.051 30.8573C18.9059 30.7642 18.7905 30.6314 18.7187 30.4746L12.9876 19.0122L1.52541 13.2811C1.36864 13.2092 1.23579 13.0939 1.14265 12.9488C1.04951 12.8036 1 12.6348 1 12.4623C1 12.2899 1.04951 12.1211 1.14265 11.9759C1.23579 11.8308 1.36864 11.7154 1.52541 11.6436L30.9996 1Z" fill="black" stroke="black" stroke-width="2" stroke-linecap="round" stroke-linejoin="round"/>
</svg>
