<svg width="36" height="40" viewBox="0 0 36 40" fill="none" xmlns="http://www.w3.org/2000/svg">
<path d="M34.002 8C34.5118 8.00057 35.0022 8.19576 35.3729 8.5457C35.7436 8.89563 35.9667 9.37391 35.9966 9.88279C36.0264 10.3917 35.8609 10.8928 35.5336 11.2837C35.2064 11.6746 34.7423 11.9258 34.236 11.986L34.002 12H33.84L32.0017 34C32.0018 35.5304 31.417 37.003 30.367 38.1165C29.3169 39.23 27.881 39.9002 26.353 39.99L26.001 40H9.99902C6.80262 40 4.1903 37.502 4.01428 34.5L4.00428 34.166L2.15805 12H1.99803C1.48821 11.9994 0.997843 11.8042 0.627125 11.4543C0.256407 11.1044 0.0333184 10.6261 0.00344049 10.1172C-0.0264374 9.60833 0.139151 9.10724 0.466371 8.71634C0.793592 8.32543 1.25775 8.07421 1.764 8.014L1.99803 8H34.002Z" fill="#FF383C"/>
<path d="M22.0017 0C23.0627 0 24.0803 0.421427 24.8305 1.17157C25.5807 1.92172 26.0022 2.93913 26.0022 4C26.0016 4.50976 25.8064 5.00007 25.4565 5.37074C25.1065 5.74141 24.6281 5.96447 24.1192 5.99434C23.6102 6.02422 23.1091 5.85865 22.7181 5.53147C22.3272 5.20429 22.0759 4.74019 22.0157 4.234L22.0017 4H14.0007L13.9867 4.234C13.9265 4.74019 13.6753 5.20429 13.2843 5.53147C12.8934 5.85865 12.3922 6.02422 11.8833 5.99434C11.3743 5.96447 10.896 5.74141 10.546 5.37074C10.196 5.00007 10.0008 4.50976 10.0002 4C9.99992 2.99085 10.3811 2.01887 11.0674 1.2789C11.7536 0.538941 12.6943 0.0856866 13.7007 0.0100002L14.0007 0H22.0017Z" fill="#FF383C"/>
</svg>
