<svg width="18" height="21" viewBox="0 0 18 21" fill="none" xmlns="http://www.w3.org/2000/svg">
<path d="M14.7333 7.30081V6.06666C14.7333 2.71615 12.0172 0 8.66666 0C5.31611 0 2.6 2.71615 2.6 6.06666V7.30081C1.0227 7.9892 0.002275 9.54571 0 11.2667V16.4667C0.00284375 18.8587 1.94127 20.7972 4.33331 20.8H13C15.392 20.7972 17.3304 18.8587 17.3333 16.4667V11.2667C17.3311 9.54571 16.3106 7.9892 14.7333 7.30081ZM9.53332 14.7334C9.53332 15.212 9.14531 15.6 8.66666 15.6C8.18802 15.6 7.80001 15.212 7.80001 14.7334V13C7.80001 12.5214 8.18802 12.1334 8.66666 12.1334C9.14531 12.1334 9.53332 12.5214 9.53332 13V14.7334ZM13 6.93336H4.33331V6.0667C4.33331 3.67348 6.2734 1.73335 8.66666 1.73335C11.0599 1.73335 13 3.67344 13 6.0667V6.93336Z" fill="white"/>
</svg>
