<svg width="500" height="500" viewBox="0 0 500 500" fill="none" xmlns="http://www.w3.org/2000/svg">
<path d="M57.165 350H0V495H28.2684V446.348H56.9556C67.2159 446.348 75.9408 444.259 83.13 440.081C90.3891 435.832 95.9031 430.095 99.6722 422.872C103.511 415.578 105.431 407.398 105.431 398.333C105.431 389.269 103.546 381.089 99.777 373.795C96.0078 366.501 90.5286 360.729 83.3394 356.48C76.22 352.16 67.4951 350 57.165 350ZM76.6387 398.333C76.6387 403.716 75.6267 408.319 73.6025 412.143C71.6482 415.896 68.8213 418.8 65.122 420.853C61.4227 422.836 56.9556 423.828 51.7207 423.828H28.1637V372.839H51.7207C59.5381 372.839 65.6455 375.034 70.0428 379.425C74.4401 383.816 76.6387 390.118 76.6387 398.333Z" fill="white"/>
<path d="M120.151 350V495H172.291C186.669 495 198.57 492.132 207.993 486.396C217.485 480.659 224.57 472.338 229.246 461.432C233.923 450.526 236.261 437.425 236.261 422.128C236.261 406.902 233.923 393.907 229.246 383.143C224.639 372.379 217.625 364.164 208.202 358.498C198.779 352.833 186.809 350 172.291 350H120.151ZM148.42 373.37H168.521C177.386 373.37 184.645 375.211 190.299 378.894C196.022 382.576 200.245 388.065 202.967 395.359C205.759 402.653 207.155 411.753 207.155 422.659C207.155 430.874 206.352 438.027 204.747 444.117C203.211 450.208 200.873 455.306 197.732 459.414C194.661 463.451 190.682 466.496 185.797 468.549C180.911 470.532 175.152 471.524 168.521 471.524H148.42V373.37Z" fill="white"/>
<path d="M282.181 495V437.319H339.556V414.161H282.181V373.689H345V350H253.913V495H282.181Z" fill="white"/>
<path d="M500.001 140.625V437.5C500.001 472.018 468.021 500 428.572 500H393.57V468.75H428.572C448.297 468.75 464.287 454.759 464.287 437.5V140.625H392.858C363.272 140.625 339.287 119.638 339.287 93.75V31.25H142.858C123.134 31.25 107.144 45.2411 107.144 62.5V300H71.4297V62.5C71.4297 27.9822 103.41 0 142.858 0H339.287L500.001 140.625Z" fill="white"/>
</svg>
