<svg width="30" height="30" viewBox="0 0 30 30" fill="none" xmlns="http://www.w3.org/2000/svg">
<g clip-path="url(#clip0_1397_120)">
<path d="M29.9996 0L19.3561 29.4746C19.2843 29.6314 19.1689 29.7642 19.0238 29.8573C18.8787 29.9505 18.7099 30 18.5374 30C18.365 30 18.1961 29.9505 18.051 29.8573C17.9059 29.7642 17.7905 29.6314 17.7187 29.4746L11.9876 18.0122L0.525412 12.2811C0.368639 12.2092 0.235789 12.0939 0.14265 11.9488C0.0495114 11.8036 0 11.6348 0 11.4623C0 11.2899 0.0495114 11.1211 0.14265 10.9759C0.235789 10.8308 0.368639 10.7154 0.525412 10.6436L29.9996 0Z" fill="white" stroke="white" stroke-width="2" stroke-linecap="round" stroke-linejoin="round"/>
</g>
<defs>
<clipPath id="clip0_1397_120">
<rect width="30" height="30" fill="white"/>
</clipPath>
</defs>
</svg>
