<svg width="100" height="100" viewBox="0 0 100 100" fill="none" xmlns="http://www.w3.org/2000/svg">
<path d="M15.625 21.4286C13.8991 21.4286 12.5 19.8296 12.5 17.8571C12.5 15.8847 13.8991 14.2857 15.625 14.2857H84.375C86.1009 14.2857 87.5 15.8847 87.5 17.8571C87.5 19.8296 86.1009 21.4286 84.375 21.4286H15.625Z" fill="white"/>
<path d="M28.125 7.14286C26.3991 7.14286 25 5.54387 25 3.57143C25 1.59898 26.3991 0 28.125 0H71.875C73.6009 0 75 1.59898 75 3.57143C75 5.54387 73.6009 7.14286 71.875 7.14286H28.125Z" fill="white"/>
<path d="M0 89.2857C0 95.2031 4.19733 100 9.375 100H90.625C95.8027 100 100 95.2031 100 89.2857V39.2857C100 33.3684 95.8027 28.5714 90.625 28.5714H9.375C4.19733 28.5714 0 33.3684 0 39.2857V89.2857ZM9.375 92.8571C7.64911 92.8571 6.25 91.2582 6.25 89.2857V39.2857C6.25 37.3133 7.64911 35.7143 9.375 35.7143H90.625C92.3509 35.7143 93.75 37.3133 93.75 39.2857V89.2857C93.75 91.2582 92.3509 92.8571 90.625 92.8571H9.375Z" fill="white"/>
</svg>
