<svg width="500" height="500" viewBox="0 0 500 500" fill="none" xmlns="http://www.w3.org/2000/svg">
<path d="M257.353 2.26244C252.757 -0.754148 247.243 -0.754148 242.647 2.26244L8.27206 156.109C3.18044 159.451 0 165.975 0 173.077C0 180.179 3.18044 186.703 8.27206 190.045L99.6094 250L8.27206 309.955C3.18044 313.297 0 319.821 0 326.923C0 334.025 3.18044 340.549 8.27206 343.891L242.647 497.738C247.243 500.754 252.757 500.754 257.353 497.738L491.728 343.891C496.82 340.549 500 334.025 500 326.923C500 319.821 496.82 313.297 491.728 309.955L400.391 250L491.728 190.045C496.82 186.703 500 180.179 500 173.077C500 165.975 496.82 159.451 491.728 156.109L257.353 2.26244ZM250 305.128L48.8281 173.077L250 41.0256L451.172 173.077L250 305.128Z" fill="black"/>
</svg>
