<svg width="70" height="70" viewBox="0 0 70 70" fill="none" xmlns="http://www.w3.org/2000/svg">
<path d="M35 49.5833C26.95 49.5833 20.4167 43.05 20.4167 35C20.4167 26.95 26.95 20.4167 35 20.4167C43.05 20.4167 49.5833 26.95 49.5833 35C49.5833 43.05 43.05 49.5833 35 49.5833ZM37.9167 0H32.0833V14.5833H37.9167V0ZM37.9167 55.4167H32.0833V70H37.9167V55.4167ZM14.5833 32.0833H0V37.9167H14.5833V32.0833ZM70 32.0833H55.4167V37.9167H70V32.0833ZM61.8042 12.3083L57.6917 8.19583L47.3667 18.5208L51.4792 22.6333L61.8042 12.3083ZM22.6333 51.5083L18.5208 47.3958L8.19583 57.7208L12.3083 61.8333L22.6333 51.5083ZM22.6333 18.5208L12.3083 8.19583L8.19583 12.3083L18.5208 22.6333L22.6333 18.5208ZM61.8333 57.7208L51.5083 47.3958L47.3958 51.5083L57.7208 61.8333L61.8333 57.7208Z" fill="white"/>
</svg>
