<svg width="70" height="70" viewBox="0 0 70 70" fill="none" xmlns="http://www.w3.org/2000/svg">
<path d="M67.4273 2.54382C66.5153 1.63397 65.4129 0.937763 64.1994 0.505346C62.986 0.0729298 61.6917 -0.0849242 60.4099 0.043159C52.2605 0.830997 24.8535 4.22454 14.2676 14.7991C9.20748 19.8732 6.20688 26.6424 5.84529 33.7994C5.48371 40.9565 7.7868 47.9936 12.3098 53.552L44.5808 21.2798C45.1311 20.7482 45.8682 20.4541 46.6332 20.4608C47.3982 20.4674 48.1301 20.7743 48.6711 21.3153C49.212 21.8563 49.5189 22.5882 49.5255 23.3532C49.5322 24.1183 49.2381 24.8554 48.7066 25.4057L16.4473 57.6779C22.0034 62.2038 29.0398 64.5098 36.1969 64.1503C43.354 63.7909 50.1239 60.7915 55.1987 55.7316C65.9246 45.0024 69.2042 17.6791 69.9599 9.56141C70.0835 8.27715 69.9204 6.98148 69.4824 5.76791C69.0444 4.55435 68.3425 3.45315 67.4273 2.54382ZM14.2676 55.7316C14.964 56.4261 15.6867 57.0787 16.4356 57.6896L4.93939 69.1862C4.38763 69.7163 3.64968 70.0085 2.88454 69.9998C2.11941 69.9911 1.38832 69.6821 0.84878 69.1395C0.309243 68.5969 0.00444402 67.864 4.82116e-05 67.0988C-0.0043476 66.3336 0.292012 65.5973 0.825279 65.0485L12.3215 53.552C12.9323 54.2989 13.581 55.0255 14.2676 55.7316Z" fill="white"/>
</svg>
