<svg width="70" height="70" viewBox="0 0 70 70" fill="none" xmlns="http://www.w3.org/2000/svg">
<path fill-rule="evenodd" clip-rule="evenodd" d="M31.4903 14.004C31.4835 23.6586 23.6586 31.4835 14.004 31.4903L0 31.5002V38.4998L14.004 38.5097C23.6586 38.5165 31.4835 46.3414 31.4903 55.996L31.5002 70H38.4998L38.5097 55.996C38.5165 46.3414 46.3414 38.5165 55.996 38.5097L70 38.4998V31.5002L55.996 31.4903C46.3414 31.4835 38.5165 23.6586 38.5097 14.004L38.4998 0H31.5002L31.4903 14.004ZM43.3992 35C39.9592 32.9309 37.0691 30.0408 35 26.6008C32.9309 30.0408 30.0408 32.9309 26.6008 35C30.0408 37.0691 32.9309 39.9592 35 43.3992C37.0691 39.9592 39.9592 37.0691 43.3992 35Z" fill="white"/>
</svg>
