<svg width="76" height="70" viewBox="0 0 76 70" fill="none" xmlns="http://www.w3.org/2000/svg">
<path d="M76 66.8195C76 67.663 75.6664 68.472 75.0725 69.0685C74.4786 69.6649 73.6732 70 72.8333 70H3.16667C2.32681 70 1.52136 69.6649 0.927495 69.0685C0.33363 68.472 0 67.663 0 66.8195C0 65.976 0.33363 65.167 0.927495 64.5705C1.52136 63.9741 2.32681 63.639 3.16667 63.639H72.8333C73.6732 63.639 74.4786 63.9741 75.0725 64.5705C75.6664 65.167 76 65.976 76 66.8195ZM6.33333 57.278H69.6667C70.5065 57.278 71.312 56.9429 71.9058 56.3464C72.4997 55.75 72.8333 54.941 72.8333 54.0975V50.9169C72.8218 42.1939 69.5691 33.7891 63.712 27.3482C57.8549 20.9072 49.8152 16.8937 41.1667 16.0935V11.8698C42.3741 11.1697 43.3177 10.089 43.8512 8.79528C44.3848 7.50159 44.4784 6.06723 44.1175 4.71467C43.7567 3.3621 42.9616 2.16692 41.8555 1.31448C40.7494 0.462048 39.3942 0 38 0C36.6058 0 35.2506 0.462048 34.1445 1.31448C33.0384 2.16692 32.2433 3.3621 31.8825 4.71467C31.5216 6.06723 31.6152 7.50159 32.1488 8.79528C32.6823 10.089 33.6259 11.1697 34.8333 11.8698V16.0935C26.1848 16.8937 18.1451 20.9072 12.288 27.3482C6.43085 33.7891 3.17817 42.1939 3.16667 50.9169V54.0975C3.16667 54.941 3.5003 55.75 4.09416 56.3464C4.68803 56.9429 5.49348 57.278 6.33333 57.278Z" fill="white"/>
</svg>
