<svg width="70" height="70" viewBox="0 0 70 70" fill="none" xmlns="http://www.w3.org/2000/svg">
<path d="M69.9684 10.7625C70.4204 17.6371 66.0104 23.3333 57.8845 23.3333C51.6019 23.3333 46.6668 18.7542 46.6668 13.125C46.6668 12.7313 46.6901 12.3463 46.7368 11.9642C46.941 10.2754 45.7539 8.75 44.0505 8.75C42.5805 8.61292 41.1572 9.58708 40.9676 11.0833C40.8801 11.7513 40.8305 12.4338 40.8305 13.125C40.8305 16.9983 42.213 20.5567 44.5085 23.3333H25.4886C27.7841 20.5567 29.1666 16.9983 29.1666 13.125C29.1666 12.4338 29.1199 11.7513 29.0295 11.0833C28.8399 9.58708 27.4195 8.61292 25.9466 8.75C24.2432 8.75 23.0561 10.2754 23.2603 11.9642C23.3069 12.3433 23.3303 12.7313 23.3303 13.125C23.3303 18.7542 18.3952 23.3333 12.1126 23.3333C3.98961 23.3333 -0.420446 17.6371 0.0316433 10.7625C0.434148 4.66083 5.6813 0 11.7976 0H58.2024C64.3187 0 69.5658 4.66083 69.9684 10.7625ZM64.167 67.0833C64.167 68.6933 62.8603 70 61.2503 70H8.74967C7.13965 70 5.83297 68.6933 5.83297 67.0833C5.83297 65.4733 7.13965 64.1667 8.74967 64.1667H11.6664V29.1667H58.3336V64.1667H61.2503C62.8603 64.1667 64.167 65.4733 64.167 67.0833ZM23.3332 37.9167C21.7232 37.9167 20.4165 39.2233 20.4165 40.8333V61.25C20.4165 62.86 21.7232 64.1667 23.3332 64.1667C24.9432 64.1667 26.2499 62.86 26.2499 61.25V40.8333C26.2499 39.2233 24.9432 37.9167 23.3332 37.9167ZM35 37.9167C33.39 37.9167 32.0833 39.2233 32.0833 40.8333V61.25C32.0833 62.86 33.39 64.1667 35 64.1667C36.61 64.1667 37.9167 62.86 37.9167 61.25V40.8333C37.9167 39.2233 36.61 37.9167 35 37.9167ZM46.6668 37.9167C45.0568 37.9167 43.7501 39.2233 43.7501 40.8333V61.25C43.7501 62.86 45.0568 64.1667 46.6668 64.1667C48.2768 64.1667 49.5835 62.86 49.5835 61.25V40.8333C49.5835 39.2233 48.2768 37.9167 46.6668 37.9167Z" fill="white"/>
</svg>
