<svg width="70" height="70" viewBox="0 0 70 70" fill="none" xmlns="http://www.w3.org/2000/svg">
<path d="M11.6667 11.6662C11.6667 8.4434 17.5 0 17.5 0C17.5 0 23.3333 8.4434 23.3333 11.6662C23.3333 14.889 20.7229 17.4993 17.5 17.4993C14.2771 17.4993 11.6667 14.889 11.6667 11.6662ZM43.75 49.1671C46.4013 45.6381 49.8546 42.812 53.9263 40.8725C52.36 35.5877 49.6154 30.6587 45.8121 26.8526L43.75 24.7877L41.6879 26.8526C37.8846 30.6558 35.14 35.5877 33.5737 40.8725C37.6454 42.812 41.0988 45.6381 43.75 49.1671ZM67.375 43.7482C53.4654 43.7482 43.75 53.4632 43.75 67.3722C43.75 53.4632 34.0346 43.7482 20.125 43.7482H17.5V46.3731C17.5 60.9441 26.5533 69.9971 41.125 69.9971H46.375C60.9496 69.9971 70 60.9441 70 46.3731V43.7482H67.375ZM11.6667 46.3731V37.9151H20.125C22.9133 37.9151 25.5792 38.2447 28.0846 38.8746C29.3621 34.6981 31.2842 30.8775 33.6583 27.4943C33.6817 27.5322 33.7021 27.5701 33.6583 27.4943C33.6204 27.4301 33.635 27.4564 33.6525 27.4884C32.0658 25.2427 29.2017 23.3353 26.25 23.3353H8.75C3.92583 23.3353 0 27.2609 0 32.0849V70H22.2133C15.5254 64.896 11.6667 56.6947 11.6667 46.376V46.3731Z" fill="white"/>
</svg>
