<svg width="73" height="70" viewBox="0 0 73 70" fill="none" xmlns="http://www.w3.org/2000/svg">
<path d="M68.769 24.3478H4.23096L9.44133 10.0161C11.6161 4.02652 17.3588 0 23.7311 0H49.2689C55.6443 0 61.3839 4.02652 63.5587 10.0191L68.769 24.3478ZM73 42.6087V45.6522C73 51.8761 69.2375 57.2235 63.875 59.5791V63.913C63.875 67.2761 61.1527 70 57.7917 70C54.4306 70 51.7083 67.2761 51.7083 63.913V60.8696H21.2917V63.913C21.2917 67.2761 18.5694 70 15.2083 70C11.8473 70 9.125 67.2761 9.125 63.913V59.5791C3.76254 57.2235 0 51.8761 0 45.6522V42.6087H9.125C10.807 42.6087 12.1667 41.2452 12.1667 39.5652C12.1667 37.8852 10.807 36.5217 9.125 36.5217H0.264625C0.465375 35.1948 0.760417 33.8891 1.22275 32.62L2.01662 30.4348H70.9803L71.7742 32.62C72.2365 33.8891 72.5316 35.1948 72.7323 36.5217H63.872C62.1899 36.5217 60.8303 37.8852 60.8303 39.5652C60.8303 41.2452 62.1899 42.6087 63.872 42.6087H73ZM48.6667 48.6957C48.6667 47.0157 47.307 45.6522 45.625 45.6522H27.375C25.693 45.6522 24.3333 47.0157 24.3333 48.6957C24.3333 50.3757 25.693 51.7391 27.375 51.7391H45.625C47.307 51.7391 48.6667 50.3757 48.6667 48.6957Z" fill="white"/>
</svg>
