<svg width="50" height="70" viewBox="0 0 50 70" fill="none" xmlns="http://www.w3.org/2000/svg">
<path d="M20.2932 7.29136C20.2932 3.26361 23.5615 0 27.5951 0C31.6286 0 34.8969 3.26361 34.8969 7.29136C34.8969 11.3191 31.6286 14.5827 27.5951 14.5827C23.5615 14.5827 20.2932 11.3191 20.2932 7.29136ZM33.3022 38.3642L46.0804 44.7456L50 36.9176L39.4123 31.6328L32.6392 20.9845C30.6969 18.768 27.893 17.4993 24.946 17.4993H19.2622L3.85244 25.1931L0 39.7117L8.4672 41.9545L11.3091 31.2566L16.6569 28.5851L14.7234 36.8389C13.6982 41.2137 15.7135 45.8189 19.6273 48.0384L31.9791 55.0469V70H40.7413V49.9546L27.6155 42.5086L30.0952 33.2778L33.3051 38.3671L33.3022 38.3642ZM12.9797 50.1062L11.7413 55.461L5.12296 69.9971H14.7497L19.8989 58.6838L20.6846 55.3473L16.7358 53.1074C15.3076 52.2966 14.0604 51.2699 12.9768 50.1062H12.9797Z" fill="white"/>
</svg>
