<svg width="70" height="70" viewBox="0 0 70 70" fill="none" xmlns="http://www.w3.org/2000/svg">
<path d="M70 61.25C70 66.0829 66.0829 70 61.25 70C56.4171 70 52.5 66.0829 52.5 61.25C52.5 59.2229 53.2175 57.3825 54.3725 55.8979L52.5379 48.1513L44.3946 58.3304H22.7996C23.1263 59.2463 23.3363 60.2175 23.3363 61.2471C23.3363 66.08 19.4192 69.9971 14.5863 69.9971C9.75333 69.9971 5.83625 66.08 5.83625 61.2471C5.83625 60.2175 6.04625 59.2463 6.37292 58.3304H0V49.5804H40.1888L49.9771 37.345L43.47 9.87C43.3125 9.20792 42.7292 8.74708 42.0525 8.74708H32.0833V0H42.0525C46.8038 0 50.89 3.22875 51.9867 7.85458L62.5917 52.6371C66.78 53.2875 69.9971 56.8808 69.9971 61.2529L70 61.25Z" fill="white"/>
</svg>
