<svg width="48" height="48" viewBox="0 0 48 48" fill="none" xmlns="http://www.w3.org/2000/svg">
<rect x="1.25" y="1.25" width="45.5" height="45.5" rx="22.75" stroke="black" stroke-width="2.5"/>
<path d="M23.9707 19.6422V24.0981L26.1987 26.3261" stroke="black" stroke-width="2" stroke-linecap="round" stroke-linejoin="round"/>
<path d="M14 22.984C14.2496 20.5334 15.3928 18.2604 17.2113 16.5987C19.0298 14.937 21.3965 14.003 23.8597 13.9749C26.3229 13.9468 28.7102 14.8265 30.5662 16.4462C32.4223 18.0658 33.617 20.3121 33.9226 22.7565C34.2281 25.2008 33.623 27.6721 32.2228 29.6988C30.8226 31.7256 28.7253 33.1658 26.3309 33.7449C23.9366 34.324 21.4129 34.0013 19.2413 32.8384C17.0697 31.6755 15.4022 29.7538 14.557 27.44M14 33.0098V27.44H19.5699" stroke="black" stroke-width="2" stroke-linecap="round" stroke-linejoin="round"/>
</svg>
