<svg width="48" height="48" viewBox="0 0 48 48" fill="none" xmlns="http://www.w3.org/2000/svg">
<rect width="48" height="48" rx="24" fill="black"/>
<path d="M23.9989 12C25.2703 12 26.5132 12.3519 27.5704 13.0112C28.6276 13.6705 29.4515 14.6075 29.9381 15.7039C30.4247 16.8002 30.552 18.0066 30.3039 19.1705C30.0559 20.3344 29.4436 21.4035 28.5446 22.2426C27.6455 23.0817 26.5001 23.6532 25.253 23.8847C24.006 24.1162 22.7134 23.9974 21.5388 23.5432C20.3641 23.0891 19.3601 22.3201 18.6537 21.3334C17.9473 20.3467 17.5703 19.1867 17.5703 18L17.5767 17.7396C17.6486 16.1949 18.3567 14.7357 19.5532 13.6664C20.7497 12.597 22.3423 12.0001 23.9989 12Z" fill="white"/>
<path d="M26.5714 26.4C28.2764 26.4 29.9115 27.0322 31.1171 28.1574C32.3227 29.2826 33 30.8087 33 32.4V33.6C33 34.2365 32.7291 34.847 32.2468 35.2971C31.7646 35.7471 31.1106 36 30.4286 36H17.5714C16.8894 36 16.2354 35.7471 15.7532 35.2971C15.2709 34.847 15 34.2365 15 33.6V32.4C15 30.8087 15.6773 29.2826 16.8829 28.1574C18.0885 27.0322 19.7236 26.4 21.4286 26.4H26.5714Z" fill="white"/>
</svg>
