<svg width="30" height="30" viewBox="0 0 30 30" fill="none" xmlns="http://www.w3.org/2000/svg">
<path d="M22.5 2.00982C24.7803 3.32635 26.6739 5.21992 27.9904 7.50021C29.3069 9.78049 30 12.3672 30 15.0002C30 17.6333 29.3069 20.2199 27.9903 22.5002C26.6738 24.7804 24.7802 26.674 22.4998 27.9905C20.2195 29.307 17.6328 30 14.9998 30C12.3667 30 9.78003 29.3068 7.49975 27.9903C5.21948 26.6737 3.32593 24.7801 2.00945 22.4998C0.69297 20.2194 -6.68845e-05 17.6328 4.84148e-09 14.9997L0.00750018 14.5137C0.0915048 11.9232 0.845322 9.39871 2.19546 7.18628C3.5456 4.97384 5.44598 3.14899 7.71134 1.88965C9.9767 0.630303 12.5297 -0.020566 15.1215 0.000495365C17.7133 0.0215568 20.2554 0.71383 22.5 2.00982ZM15 19.4997C14.6022 19.4997 14.2206 19.6577 13.9393 19.939C13.658 20.2203 13.5 20.6019 13.5 20.9997V21.0147C13.5 21.4125 13.658 21.794 13.9393 22.0753C14.2206 22.3566 14.6022 22.5147 15 22.5147C15.3978 22.5147 15.7794 22.3566 16.0607 22.0753C16.342 21.794 16.5 21.4125 16.5 21.0147V20.9997C16.5 20.6019 16.342 20.2203 16.0607 19.939C15.7794 19.6577 15.3978 19.4997 15 19.4997ZM15 8.99977C14.6022 8.99977 14.2206 9.15781 13.9393 9.43911C13.658 9.72041 13.5 10.1019 13.5 10.4998V16.4997C13.5 16.8975 13.658 17.2791 13.9393 17.5604C14.2206 17.8417 14.6022 17.9997 15 17.9997C15.3978 17.9997 15.7794 17.8417 16.0607 17.5604C16.342 17.2791 16.5 16.8975 16.5 16.4997V10.4998C16.5 10.1019 16.342 9.72041 16.0607 9.43911C15.7794 9.15781 15.3978 8.99977 15 8.99977Z" fill="black"/>
</svg>
