<svg width="17" height="18" viewBox="0 0 17 18" fill="none" xmlns="http://www.w3.org/2000/svg">
<path d="M15.299 3.6001C15.5284 3.60035 15.749 3.68819 15.9158 3.84566C16.0826 4.00313 16.183 4.21836 16.1965 4.44735C16.2099 4.67635 16.1354 4.90184 15.9882 5.07775C15.8409 5.25365 15.6321 5.3667 15.4043 5.3938L15.299 5.4001H15.2261L14.399 15.3001C14.399 15.9888 14.1359 16.6515 13.6634 17.1525C13.191 17.6536 12.5449 17.9552 11.8574 17.9956L11.699 18.0001H4.499C3.0608 18.0001 1.8854 16.876 1.8062 15.5251L1.8017 15.3748L0.971003 5.4001H0.899003C0.669611 5.39984 0.448974 5.31201 0.282171 5.15453C0.115369 4.99706 0.0149914 4.78184 0.00154803 4.55284C-0.0118954 4.32384 0.0626101 4.09836 0.209841 3.92245C0.357073 3.74654 0.565917 3.63349 0.793703 3.6064L0.899003 3.6001H15.299Z" fill="black" fill-opacity="0.7"/>
<path d="M9.89902 0C10.3764 0 10.8342 0.189642 11.1718 0.527208C11.5094 0.864773 11.699 1.32261 11.699 1.8C11.6988 2.02939 11.6109 2.25003 11.4535 2.41683C11.296 2.58363 11.0808 2.68401 10.8518 2.69745C10.6228 2.7109 10.3973 2.63639 10.2214 2.48916C10.0455 2.34193 9.93242 2.13309 9.90532 1.9053L9.89902 1.8H6.29902L6.29272 1.9053C6.26563 2.13309 6.15258 2.34193 5.97667 2.48916C5.80076 2.63639 5.57528 2.7109 5.34628 2.69745C5.11728 2.68401 4.90206 2.58363 4.74459 2.41683C4.58711 2.25003 4.49928 2.02939 4.49902 1.8C4.49888 1.34588 4.67039 0.90849 4.97917 0.575507C5.28795 0.242524 5.71118 0.038559 6.16402 0.0045001L6.29902 0H9.89902Z" fill="black" fill-opacity="0.7"/>
</svg>
